<svg width="1260" height="1261" viewBox="0 0 1260 1261" fill="none" xmlns="http://www.w3.org/2000/svg">
<path d="M630.472 30L219 441.472H278.656H372.728L630.472 185.258V30Z" fill="black"/>
<path d="M630.472 662.505H489.746H278.656L436.208 785.641H630.472V662.505Z" fill="black"/>
<path d="M976.17 441.472H1041.94L885.922 285.449L785.73 185.258L630.472 30V185.258L896.629 441.472H976.17Z" fill="#3355B9"/>
<path d="M630.472 441.472V493.86C676.807 490.891 724.094 510.008 754.106 551.989C773.54 579.171 785.73 615.94 785.73 662.505V551.989V441.472H630.472Z" fill="black"/>
<path d="M630.472 1158.87L715.367 1073.98V941.664L861.131 785.641H630.472V1158.87Z" fill="#3355B9"/>
<path d="M278.656 551.989V662.505H489.746V551.989H400.9H278.656Z" fill="#3355B9"/>
<path d="M278.656 441.472V551.989H400.9H489.746V441.472H372.728H278.656Z" fill="#3355B9"/>
<path d="M523.144 551.989C550.02 516.011 589.881 496.46 630.472 493.86V441.472H489.746V551.989V662.505C489.746 616.297 502.681 579.381 523.144 551.989Z" fill="black"/>
<path d="M630.472 662.505H785.73C785.73 615.94 773.54 579.171 754.106 551.989C724.094 510.008 676.807 490.891 630.472 493.86V551.989V662.505Z" fill="#3355B9"/>
<path d="M785.73 74.3595V185.258L885.922 285.449V74.3595H785.73Z" fill="#7C9EFD"/>
<path d="M630.472 493.86C589.881 496.46 550.02 516.011 523.144 551.989C502.681 579.381 489.746 616.297 489.746 662.505H630.472V551.989V493.86Z" fill="#7C9EFD"/>
<path d="M976.17 662.505V551.989V441.472H896.629H785.73V551.989V662.505H976.17Z" fill="#7C9EFD"/>
<path d="M861.131 785.641L976.17 662.505H785.73H630.472V785.641H861.131Z" fill="#3355B9"/>
<path d="M559.344 1230L630.472 1158.87V785.641H436.208L559.344 908.776V1230Z" fill="#7C9EFD"/>
<path d="M489.746 441.472H630.472V285.449V185.258L372.728 441.472H489.746Z" fill="#7C9EFD"/>
<path d="M630.472 285.449V441.472H785.73H896.629L630.472 185.258V285.449Z" fill="black"/>
<path d="M630.472 30L219 441.472H278.656M630.472 30L885.922 285.449M630.472 30V185.258M630.472 30L785.73 185.258M630.472 1158.87L559.344 1230V908.776L436.208 785.641M630.472 1158.87L715.367 1073.98V941.664L861.131 785.641M630.472 1158.87V785.641M278.656 441.472V551.989M278.656 441.472H372.728M278.656 662.505V551.989M278.656 662.505L436.208 785.641M278.656 662.505H489.746M976.17 662.505L861.131 785.641M976.17 662.505V551.989V441.472M976.17 662.505H785.73M976.17 441.472H1041.94L885.922 285.449M976.17 441.472H896.629M436.208 785.641H630.472M861.131 785.641H630.472M278.656 551.989H400.9H489.746M785.73 441.472H630.472M785.73 441.472H896.629M785.73 441.472V551.989V662.505M785.73 185.258V74.3595H885.922V285.449M785.73 185.258L885.922 285.449M489.746 441.472H630.472M489.746 441.472H372.728M489.746 441.472V551.989M489.746 662.505C489.746 616.297 502.681 579.381 523.144 551.989C550.02 516.011 589.881 496.46 630.472 493.86M489.746 662.505H630.472M489.746 662.505V551.989M785.73 662.505H630.472M785.73 662.505C785.73 615.94 773.54 579.171 754.106 551.989C724.094 510.008 676.807 490.891 630.472 493.86M630.472 493.86V441.472M630.472 493.86V551.989V662.505M630.472 441.472V285.449V185.258M630.472 662.505V785.641M630.472 185.258L896.629 441.472M630.472 185.258L372.728 441.472" stroke="#1E1C46" stroke-width="25"/>
</svg>
